<?xml version="1.0" encoding="utf-8"?>
<!-- Generator: Adobe Illustrator 27.5.0, SVG Export Plug-In . SVG Version: 6.00 Build 0)  -->
<svg version="1.1" xmlns="http://www.w3.org/2000/svg" xmlns:xlink="http://www.w3.org/1999/xlink" x="0px" y="0px"
	 viewBox="0 0 750 500" style="enable-background:new 0 0 750 500;" xml:space="preserve">
<g id="BACKGROUND">
	<rect style="fill:#FFFFFF;" width="750" height="500"/>
</g>
<g id="OBJECTS">
	<g>
		<g>
			<path style="fill:#CEE8F0;" d="M633.871,216.057c-14.471-9.096-33.153-8.713-48.283-16.666
				c-28.556-15.009-36.837-54.898-65.427-69.842c-20.224-10.571-44.881-5.592-66.57,1.503
				c-21.689,7.095-43.917,16.204-66.525,13.104c-36.747-5.04-62.891-40.549-99.088-48.644
				c-35.696-7.983-75.457,17.003-83.749,52.629c-2.941,12.634-2.333,25.812-4.11,38.661c-1.777,12.85-6.615,26.251-17.329,33.565
				c-11.482,7.839-26.621,6.822-40.051,10.417c-34.42,9.215-53.37,49.477-48.917,84.83c4.379,34.767,26.007,64.86,50.118,90.366
				h478.068c-5.117-20.305,0.574-42.408,8.687-62.026c8.943-21.627,20.861-42.392,24.924-65.439
				C659.682,255.468,653.685,228.511,633.871,216.057z"/>
			<path style="fill:#CEE8F0;" d="M609.201,199.209c2.217,0.235,4.93,0.062,6.001-1.893c0.957-1.747,0.018-3.897-1.001-5.608
				c-6.489-10.89-16.692-19.52-28.508-24.111c-4.515-1.755-12.234-2.459-13.488,4.009c-0.873,4.502,4.872,10.002,7.672,12.942
				C587.559,192.619,598.089,198.03,609.201,199.209z"/>
		</g>
	</g>
	<g>
		<path style="fill:#CEE8F0;" d="M99.158,184.106h89.978c-0.093-2.701-0.366-5.399-1.42-7.868c-1.353-3.167-4.321-5.899-7.764-5.895
			c-4.713,0.006-9.671,4.809-13.46,2.007c-3.222-2.383-1.95-8.271-5.303-10.465c-2.189-1.432-5.146-0.414-7.323,1.035
			c-2.177,1.449-4.219,3.353-6.804,3.754c-5.354,0.83-9.159-4.871-11.679-9.666c-2.521-4.796-6.962-10.266-12.138-8.667
			c-4.243,1.31-5.635,6.479-6.617,10.811c-0.982,4.331-3.2,9.46-7.631,9.755c-2.977,0.199-5.734-2.031-8.706-1.764
			c-3.864,0.346-6.158,4.939-5.519,8.765C95.289,179.007,97.127,181.653,99.158,184.106z"/>
		<path style="fill:#CEE8F0;" d="M554.499,126.606h93.267c-1.126-4.019-4.523-7.52-8.745-7.824
			c-4.726-0.34-10.561,2.271-13.572-1.388c-2.186-2.656-1.041-7.031-3.294-9.631c-2.119-2.445-6.053-1.991-9.033-0.73
			c-2.98,1.26-5.911,3.151-9.139,2.933c-4.641-0.313-7.732-4.699-10.718-8.264c-2.987-3.566-7.956-6.885-11.966-4.527
			c-2.493,1.466-3.429,4.523-4.55,7.189c-1.12,2.666-3.173,5.513-6.064,5.442c-1.772-0.043-3.29-1.197-4.899-1.939
			c-5.395-2.488-12.59,0.344-14.84,5.842C549.127,118.151,550.831,123.611,554.499,126.606z"/>
	</g>
	<g>
		<path style="fill:#FFFFFF;" d="M250.369,165.816L250.369,165.816c0-4.441-3.6-8.042-8.042-8.042l0,0
			c4.441,0,8.042-3.6,8.042-8.042l0,0c0,4.441,3.6,8.042,8.042,8.042l0,0C253.969,157.774,250.369,161.374,250.369,165.816z"/>
		<path style="fill:#FFFFFF;" d="M242.702,150.109L242.702,150.109c0-2.164-1.754-3.918-3.918-3.918l0,0
			c2.164,0,3.918-1.754,3.918-3.918l0,0c0,2.164,1.754,3.918,3.918,3.918l0,0C244.456,146.191,242.702,147.945,242.702,150.109z"/>
		<path style="fill:#FFFFFF;" d="M522.702,186.109L522.702,186.109c0-2.164-1.754-3.918-3.918-3.918l0,0
			c2.164,0,3.918-1.754,3.918-3.918l0,0c0,2.164,1.754,3.918,3.918,3.918l0,0C524.456,182.191,522.702,183.945,522.702,186.109z"/>
		<path style="fill:#FFFFFF;" d="M531.379,180.234L531.379,180.234c0-3.504-2.841-6.345-6.345-6.345v0
			c3.504,0,6.345-2.841,6.345-6.345l0,0c0,3.504,2.841,6.345,6.345,6.345v0C534.22,173.889,531.379,176.729,531.379,180.234z"/>
		<path style="fill:#FFFFFF;" d="M401.987,211.671L401.987,211.671c0-3.042-2.466-5.508-5.508-5.508l0,0
			c3.042,0,5.508-2.466,5.508-5.508l0,0c0,3.042,2.466,5.508,5.508,5.508l0,0C404.453,206.163,401.987,208.629,401.987,211.671z"/>
		<path style="fill:#FFFFFF;" d="M397.066,202.328L397.066,202.328c0-1.764-1.43-3.194-3.194-3.194l0,0
			c1.764,0,3.194-1.43,3.194-3.194l0,0c0,1.764,1.43,3.194,3.194,3.194l0,0C398.496,199.134,397.066,200.564,397.066,202.328z"/>
		<path style="fill:#FFFFFF;" d="M238.701,250.859L238.701,250.859c0-2.853-2.313-5.167-5.166-5.167l0,0
			c2.853,0,5.166-2.313,5.166-5.166l0,0c0,2.853,2.313,5.166,5.167,5.166l0,0C241.014,245.692,238.701,248.005,238.701,250.859z"/>
	</g>
	<g>
		<path style="fill:#FFFFFF;" d="M441.091,173.531l-24.006-17.349c1.832-4.442,2.848-9.306,2.848-14.409
			c0-20.895-16.939-37.833-37.833-37.833s-37.833,16.938-37.833,37.833c0,3.021,0.364,5.956,1.034,8.773l-31.805,22.985
			c-0.791,0.572-0.08,1.796,0.809,1.392l34.289-15.586c6.328,12.048,18.954,20.269,33.508,20.269
			c13.122,0,24.68-6.682,31.466-16.827l26.716,12.144C441.171,175.327,441.882,174.102,441.091,173.531z"/>
		<path style="fill:#F16B5F;" d="M406.349,117.954v21.254h-7.247c-0.045-1.837-1.546-3.313-3.394-3.313
			c-1.849,0-3.349,1.476-3.395,3.313h-7.303v-7.19c1.831-0.053,3.299-1.549,3.299-3.394c0-1.844-1.469-3.341-3.299-3.394v-7.276
			H406.349z"/>
		<path style="fill:#36C2D9;" d="M383.06,131.124c0,1.844-1.469,3.34-3.299,3.394v7.276h-7.327c0,1.877-1.522,3.399-3.399,3.399
			c-1.879,0-3.401-1.522-3.401-3.399h-7.298v-21.339h21.425v7.276C381.591,127.783,383.06,129.28,383.06,131.124z"/>
		<path style="fill:#3BDBAA;" d="M402.849,144.958v21.339H381.51v-6.475c1.831-0.053,3.299-1.551,3.299-3.394
			c0-1.844-1.469-3.342-3.299-3.395v-8.075h7.303c0.046-1.837,1.546-3.313,3.395-3.313c1.848,0,3.349,1.476,3.394,3.313H402.849z"/>
		<path style="fill:#FBAC4D;" d="M384.81,156.428c0,1.842-1.469,3.34-3.299,3.394v6.475h-21.425v-21.339h7.303
			c-0.002,0.029-0.005,0.057-0.005,0.086c0,1.877,1.522,3.399,3.401,3.399c1.877,0,3.399-1.522,3.399-3.399
			c0-0.029-0.003-0.057-0.005-0.086h7.332v8.075C383.341,153.086,384.81,154.584,384.81,156.428z"/>
	</g>
	<g>
		<g>
			
				<rect x="237.168" y="316.981" transform="matrix(-1 -1.224647e-16 1.224647e-16 -1 517.6688 637.6287)" style="fill:#0E293A;" width="43.333" height="3.667"/>
			
				<rect x="216.501" y="356.335" transform="matrix(6.123234e-17 -1 1 6.123234e-17 -101.6467 619.3154)" style="fill:#0E293A;" width="84.667" height="8.292"/>
			<path style="fill:#048FA6;" d="M227.054,317.314h63.561c1.318,0,2.386-1.068,2.386-2.386v-16.227
				c0-1.318-1.068-2.386-2.386-2.386h-63.561c-1.318,0-2.386,1.068-2.386,2.386v16.227
				C224.668,316.246,225.736,317.314,227.054,317.314z"/>
			<polygon style="fill:#0E293A;" points="229.996,405.981 287.673,405.981 262.625,397.814 255.044,397.814 			"/>
		</g>
		<g>
			<g>
				<g>
					<path style="fill:#ECB67C;" d="M309.32,399.805c0.626-0.872,1.256-1.743,1.904-2.599c-1.056-0.633-1.676-1.06-1.676-1.06
						l-0.331-0.096c0.263-1.953,0.98-7.309,1.961-14.886c-5.739-0.409-11.475-0.866-17.208-1.353l0.171,14.66
						c0,0-0.947,2.764-1.654,5.334H309.32z"/>
					<path style="fill:#FFFFFF;" d="M293.035,396.539c1.009-1.154,1.97-1.639,3.358-0.986c0.953,0.448,1.639,1.302,2.405,2.024
						c0.767,0.722,1.76,1.362,2.802,1.206c1.376-0.206,2.151-1.636,3.159-2.596c1.267-1.207,3.147-1.733,4.857-1.36
						c2.69,3.747,7.371,6.254,11.979,6.455c1.212,0.053,2.429-0.038,3.637,0.081c1.207,0.119,2.438,0.474,3.336,1.289
						c0.66,0.599,1.093,1.489,1.093,2.364c0,0.515-0.436,0.927-0.952,0.927l-34.992,0.038c-0.43,0.001-0.807-0.283-0.916-0.7
						C292.322,403.458,291.262,398.566,293.035,396.539z"/>
				</g>
				<g>
					<path style="fill:#ECB67C;" d="M341.74,399.389c0.653-0.665,1.366-1.269,2.131-1.803c-1.445-0.837-2.323-1.44-2.323-1.44
						l-0.331-0.096c0.248-1.841,0.9-6.713,1.796-13.614c-5.677,0.121-11.348-0.036-17.016-0.324l0.144,12.359
						c0,0-0.849,2.474-1.539,4.917H341.74z"/>
					<path style="fill:#FFFFFF;" d="M325.035,396.539c1.009-1.154,1.97-1.639,3.358-0.986c0.953,0.448,1.639,1.302,2.405,2.024
						c0.767,0.722,1.76,1.362,2.802,1.206c1.376-0.206,2.151-1.636,3.159-2.596c1.267-1.207,3.147-1.733,4.857-1.36
						c2.69,3.747,7.371,6.254,11.979,6.455c1.212,0.053,2.429-0.038,3.637,0.081c1.207,0.119,2.438,0.474,3.336,1.289
						c0.66,0.599,1.093,1.489,1.093,2.364c0,0.515-0.436,0.927-0.952,0.927l-34.992,0.038c-0.43,0.001-0.807-0.283-0.916-0.7
						C324.322,403.458,323.262,398.566,325.035,396.539z"/>
				</g>
				<g>
					<path style="fill:#36C2D9;" d="M244.849,269.219c0,0-5.25,18.5,2.75,28.5s44,17.5,44,17.5l-0.25,78c0,0,16.25,2,21.25,1.25
						l7.5-81.75l4,3l0.75,76.75c0,0,12.75,1.5,18.5,1.25c0,0,9.75-76,5.75-88.75s-48.25-43.5-48.25-43.5L244.849,269.219z"/>
					<g>
						
							<path style="fill:none;stroke:#0E293A;stroke-width:0.75;stroke-linecap:round;stroke-linejoin:round;stroke-miterlimit:10;" d="
							M320.099,312.719c0,0,0.75-4.125-1.125-8.875s-29.875-28.625-29.875-28.625"/>
						
							<path style="fill:none;stroke:#0E293A;stroke-width:0.75;stroke-linecap:round;stroke-linejoin:round;stroke-miterlimit:10;" d="
							M307.648,314.285c1.535-1.126,2.84-2.564,3.812-4.2"/>
						
							<path style="fill:none;stroke:#0E293A;stroke-width:0.75;stroke-linecap:round;stroke-linejoin:round;stroke-miterlimit:10;" d="
							M344.107,309.971c0.374-0.959,0.749-1.917,1.123-2.876"/>
						
							<path style="fill:none;stroke:#0E293A;stroke-width:0.75;stroke-linecap:round;stroke-linejoin:round;stroke-miterlimit:10;" d="
							M249.349,273.719c0,0-2.75,17.75,5,23.25s41.25,16.5,41.25,16.5l-0.25,77.25"/>
						
							<polyline style="fill:none;stroke:#0E293A;stroke-width:0.75;stroke-linecap:round;stroke-linejoin:round;stroke-miterlimit:10;" points="
							320.099,308.719 328.349,313.719 327.349,390.969 						"/>
					</g>
				</g>
			</g>
			<g>
				<g>
					<path style="fill:#ECB67C;" d="M361.966,184.948c-0.587,0.133-1.732,0.732-3.773,2.908c0,0,3.056-5.559,2.733-6.67
						c-0.323-1.11-5.212,5.389-5.212,5.389s2.766-6.625,2.1-7.449c-0.666-0.823-4.721,6.176-4.721,6.176s2.456-6.997,1.859-7.116
						c-1.488-0.296-5.203,9.432-6.185,8.918c-0.869-0.455-0.95-3.038-0.764-4.36c0.039-0.278-0.154-0.516-0.438-0.519
						c-0.557-0.006-1.399,0.227-1.686,1.602c-0.376,1.801-1.063,5.378-0.24,9.748c-0.004,0.006-0.005,0.007-0.009,0.013
						c-0.94,1.35-11.38,16.39-23.25,33.14c-9.44-6.8-17.71-12.9-22.37-16.69c-2.78-2.27-5.18-3.78-7.25-4.77
						c-6.93-3.32-13.91,2.78-11.44,10.15c0.97,2.89,3.08,6.21,7.17,9.74c4.81,4.15,12.51,10.78,22.3,17.81
						c1.479,1.065,3.006,2.139,4.578,3.215c6.626,4.537,15.708,2.408,19.743-4.535c0.794-1.365,1.578-2.753,2.349-4.16
						c6.8-12.44,12.59-26.49,15.16-41.31l-0.12-0.05c2.514-2.17,8.474-7.532,9.842-10.738
						C362.453,185.13,362.244,184.885,361.966,184.948z"/>
					<path style="fill:#FFFFFF;" d="M289.766,201.552c0,0,18.833,9.667,25,18c0,0-7.833,15.833-11.667,18.333
						c-3.833,2.5-21.333-15.667-23.167-19.833C278.099,213.885,277.433,201.385,289.766,201.552z"/>
					<path style="fill:#0E293A;" d="M315.439,221.699c-1.79,3.51-7.34,14.07-10.63,16.84c-0.43-0.33-0.86-0.66-1.28-0.98
						c3.26-2.71,8.79-13.21,10.63-16.8C314.579,221.069,315.009,221.389,315.439,221.699z"/>
				</g>
				<g>
					<g>
						<path style="fill:#ECB67C;" d="M263.49,199.187c4.061-7.013,3.816-22.977,3.776-24.949c-0.005-0.069-0.003-0.13-0.008-0.199
							l18.293,14.225c-0.419,0.509-0.719,1.241-0.933,2.108l-0.001,0.007c-0.446,1.755-0.532,4.059-0.483,6.177
							c0.077,3.098,0.451,5.791,0.451,5.791l-10.609,0.496L263.49,199.187z"/>
						<path style="fill:#0E293A;" d="M284.133,196.557c-11.065-0.256-14.623-14.049-14.752-14.564
							c1.528,3.483,4.194,5.529,6.919,6.722c3.353,1.478,6.792,1.665,8.247,1.67c0.023-0.004,0.046-0.001,0.069-0.005
							C284.17,192.134,284.084,194.438,284.133,196.557z"/>
					</g>
					<g>
						<path style="fill:#F16B5F;" d="M264.266,197.51c0,0,11.542,8.167,19.917,1.125c0,0,8.292,4.064,11.542,6.125
							c3.875,2.458,8.25,49.833,7.875,62.958c0,0-40.625,10.917-61,2.667c0,0,5.875-32.167,5.125-42.042s-1.25-22.75,2.875-25.875
							S262.058,197.927,264.266,197.51z"/>
						<g>
							
								<path style="fill:none;stroke:#0E293A;stroke-width:0.75;stroke-linecap:round;stroke-linejoin:round;stroke-miterlimit:10;" d="
								M274.672,241.071c4.42-3.129,8.177-7.188,10.956-11.836c-0.75,4.545-0.71,9.251-2.586,13.457"/>
							
								<path style="fill:none;stroke:#0E293A;stroke-width:0.75;stroke-linecap:round;stroke-linejoin:round;stroke-miterlimit:10;" d="
								M262.933,199.219c0,0,13.333,11.5,23.25,0.833"/>
						</g>
					</g>
				</g>
				<g>
					<g>
						<path style="fill:#ECB67C;" d="M324.78,252.451c0.429-0.968-7.649-1.385-7.649-1.385s7.347-1.005,7.18-1.591
							c-0.415-1.459-10.767-0.329-10.757-1.437c0.009-0.981,2.271-2.232,3.532-2.668c0.265-0.092,0.389-0.373,0.263-0.626
							c-0.248-0.499-0.84-1.141-2.194-0.77c-1.882,0.516-5.699,1.631-9.421,4.746c-0.002,0-0.004-0.001-0.006-0.001
							c-6.42-0.87-21.9-2.98-38.6-5.39c-0.67-11.74-1.14-22.13-1.13-28.18c0.01-3.58-0.33-6.41-0.86-8.63
							c-1.79-7.48-10.92-9.06-15.09-2.5c-1.64,2.57-2.89,6.3-3.05,11.7c-0.18,5.66-0.43,14.32,0,24.63
							c0.154,3.702,0.399,7.617,0.771,11.685c0.463,5.066,4.522,9.038,9.596,9.407c3.561,0.259,7.212,0.428,10.923,0.478
							c13.49,0.19,27.76-1.16,41.34-5.39l-0.01-0.117c3.608,1.36,8.898,3.12,11.654,2.927c0.283-0.02,0.405-0.318,0.222-0.537
							c-0.386-0.462-1.442-1.208-4.309-2.032c0,0,6.341,0.184,7.182-0.61c0.841-0.794-7.173-2.181-7.173-2.181
							S324.351,253.419,324.78,252.451z"/>
						<path style="fill:#0E293A;" d="M267.02,241.359c-7.18,1.17-15.65,0.84-19.95,0.55c-0.03-0.53-0.05-1.05-0.07-1.56v-0.08
							c4.25,0.29,12.73,0.64,19.93-0.52C266.96,240.279,266.99,240.819,267.02,241.359z"/>
						
							<line style="fill:none;stroke:#0E293A;stroke-width:0.75;stroke-linecap:round;stroke-linejoin:round;stroke-miterlimit:10;" x1="261.412" y1="243.969" x2="267.126" y2="243.329"/>
					</g>
					<g>
						<path style="fill:#FFFFFF;" d="M244.266,240.052c0,0,14.333,1.5,24.667-0.667c0,0,2.833-34.5-5.833-38
							c-8.667-3.5-15,0.333-16.667,9.833C244.766,220.719,244.266,240.052,244.266,240.052z"/>
						
							<path style="fill:none;stroke:#0E293A;stroke-width:0.75;stroke-linecap:round;stroke-linejoin:round;stroke-miterlimit:10;" d="
							M262.41,200.971c2.995,1.747,4.973,5.117,5.037,8.584"/>
					</g>
				</g>
			</g>
			<g>
				<g>
					<path style="fill:#ECB67C;" d="M297.601,156.156c-1.604-7.099-13.511-11.55-23.2-5.381c-4.503,2.867-6.28,9.019-6.902,14.786
						c-0.192-0.132-0.367-0.239-0.484-0.288c-1.68-0.697-3.63,0.356-4.398,1.918c-0.612,1.244-0.552,2.763,0.022,4.026
						c0.477,1.049,1.35,2.092,2.365,2.663c0.255,0.144,1.43,0.524,2.292,0.578c0.254,3.893,1.654,7.662,4.255,10.574
						c3.279,3.673,7.889,5.64,12.81,5.365c3.827-0.214,9.676-1.77,11.616-5.418c0.505-0.949,0.7-2.028,0.872-3.089
						C298.164,173.788,299.434,164.272,297.601,156.156z"/>
					<g>
						<g>
							<g>
								<path style="fill:#0E293A;" d="M292.382,169.138c-0.186,1.244,0.155,2.327,0.763,2.418c0.608,0.091,1.252-0.844,1.438-2.088
									c0.186-1.244-0.155-2.327-0.763-2.418C293.212,166.959,292.568,167.894,292.382,169.138z"/>
							</g>
							<g>
								<path style="fill:#0E293A;" d="M285.051,168.04c-0.186,1.244-0.83,2.179-1.438,2.088c-0.608-0.091-0.949-1.174-0.763-2.418
									c0.186-1.244,0.83-2.179,1.438-2.088C284.895,165.713,285.237,166.796,285.051,168.04z"/>
							</g>
						</g>
						<g>
							<path style="fill:#0E293A;" d="M291.827,176.025c-0.493,0.686-1.17,1.24-1.942,1.638c-0.77,0.398-1.69,0.59-2.586,0.449
								c-0.888-0.156-1.718-0.59-2.326-1.213c-0.324-0.289-0.556-0.661-0.823-0.988c-0.209-0.372-0.412-0.744-0.587-1.123
								c0.303,0.3,0.573,0.611,0.846,0.915c0.315,0.262,0.586,0.568,0.91,0.797c0.625,0.494,1.34,0.821,2.083,0.945
								c0.747,0.13,1.528,0.005,2.273-0.263C290.42,176.902,291.141,176.507,291.827,176.025z"/>
							<path style="fill:#0E293A;" d="M288.255,179.574c-0.356,0.232-0.801,0.268-1.217,0.219c-0.414-0.076-0.822-0.252-1.101-0.566
								c0.397,0.126,0.755,0.261,1.141,0.304C287.458,179.603,287.843,179.593,288.255,179.574z"/>
						</g>
						<g>
							<path style="fill:#0E293A;" d="M287.136,160.362c-0.445-0.533-1.004-0.768-1.611-0.887c-0.603-0.104-1.236-0.127-1.855-0.014
								c-0.621,0.092-1.219,0.344-1.736,0.676c-0.535,0.315-0.947,0.775-1.301,1.236c-0.179,0.233-0.136,0.568,0.097,0.747
								c0.187,0.143,0.438,0.144,0.623,0.019l0.051-0.035c0.408-0.276,0.798-0.533,1.216-0.7c0.407-0.194,0.843-0.268,1.274-0.313
								c0.433-0.034,0.877-0.021,1.319,0.069c0.437,0.081,0.901,0.173,1.402,0.128l0.144-0.013c0.307-0.028,0.533-0.299,0.505-0.606
								C287.253,160.552,287.207,160.446,287.136,160.362z"/>
							<path style="fill:#0E293A;" d="M292.637,161.186c0.582-0.379,1.185-0.44,1.8-0.376c0.607,0.077,1.219,0.241,1.778,0.53
								c0.567,0.27,1.065,0.686,1.462,1.156c0.419,0.458,0.678,1.018,0.882,1.563c0.103,0.276-0.037,0.582-0.312,0.686
								c-0.22,0.083-0.461,0.01-0.601-0.164l-0.038-0.048c-0.309-0.383-0.607-0.744-0.958-1.026
								c-0.332-0.304-0.727-0.503-1.126-0.673c-0.404-0.16-0.832-0.277-1.281-0.321c-0.441-0.051-0.913-0.098-1.378-0.289
								l-0.134-0.055c-0.285-0.117-0.422-0.442-0.305-0.727C292.47,161.333,292.545,161.246,292.637,161.186z"/>
						</g>
						<path style="fill:#0E293A;" d="M291.485,165.269c0.068,0.878,0.084,1.743,0.117,2.602c0.038,0.857,0.067,1.711,0.185,2.536
							c0.025,0.206,0.057,0.411,0.1,0.609c0.034,0.163,0.128,0.48,0.082,0.756c-0.056,0.567-0.498,1.064-0.99,1.218
							c-0.508,0.193-1.043,0.07-1.448-0.139c-0.41-0.221-0.752-0.512-1.036-0.851c0.746,0.415,1.634,0.785,2.253,0.449
							c0.311-0.17,0.504-0.431,0.511-0.745c0.01-0.16-0.025-0.268-0.09-0.525c-0.053-0.224-0.096-0.447-0.128-0.67
							c-0.113-0.894-0.107-1.779-0.025-2.654C291.095,166.981,291.242,166.116,291.485,165.269z"/>
						<path style="fill:#0E293A;" d="M263.753,168.393c0.065-0.52,0.294-1.071,0.81-1.403c0.545-0.324,1.23-0.185,1.724,0.091
							c0.528,0.276,0.927,0.726,1.222,1.207c0.303,0.487,0.5,0.996,0.637,1.567c0.049,0.204-0.077,0.409-0.28,0.458
							c-0.154,0.037-0.308-0.025-0.396-0.146l-0.021-0.029c-0.31-0.427-0.711-0.893-1.128-1.081
							c-0.209-0.089-0.372-0.106-0.539-0.021c-0.173,0.087-0.328,0.302-0.466,0.528c-0.266,0.465-0.468,1.026-0.081,1.318
							c0.404,0.318,1.061,0.354,1.65,0.364c-0.581,0.157-1.214,0.269-1.869-0.028c-0.331-0.165-0.548-0.601-0.517-0.961
							c0.02-0.361,0.12-0.678,0.256-0.982c0.141-0.299,0.322-0.613,0.671-0.841c0.354-0.234,0.855-0.226,1.188-0.065
							c0.681,0.322,1.101,0.805,1.477,1.351l-0.698,0.283c-0.216-0.914-0.648-1.897-1.405-2.424c-0.38-0.257-0.85-0.429-1.269-0.269
							C264.284,167.458,263.965,167.918,263.753,168.393z"/>
					</g>
				</g>
				<path style="fill:#0E293A;" d="M302.43,153.289c-1.21-2.46-3.35-4.36-5.67-5.84c-3.91-2.49-8.57-3.96-13.18-3.55
					c-4.62,0.42-9.17,3.19-11.53,7.17c-1.03-0.56-2.36-0.35-3.36,0.26c-1,0.62-1.74,1.58-2.39,2.56
					c-3.17,4.78-4.85,10.53-4.75,16.27c0.09,5.7,1.94,11.37,5.24,16.03c0.55-5.34,0.51-10.28,0.48-11.73
					c-0.87-0.06-2.01-0.43-2.27-0.58c-1.01-0.57-1.88-1.61-2.36-2.66c-0.57-1.26-0.63-2.78-0.02-4.03c0.77-1.56,2.72-2.61,4.4-1.92
					c0.091,0.041,0.233,0.128,0.385,0.229c1.05,1.543,1.942,3.213,2.736,4.846c2.449-3.516,4.48-8.175,5.131-12.41
					c3.264,2.825,7.247,4.811,11.467,5.717c-0.474-1.095-0.775-2.344-1.249-3.439c2.836,3.328,6.303,5.374,10.369,6.982
					c-0.389-1.915-1.111-3.864-1.942-5.632c2.294,2.316,3.766,5.331,4.406,8.526c-0.175,2.438-0.452,4.869-0.784,7.231
					c0.89-2.28,1.97-4.52,2.91-6.75c1.16-2.76,2.33-5.55,2.88-8.49C303.87,159.129,303.759,155.979,302.43,153.289z"/>
			</g>
		</g>
	</g>
	<g>
		<g>
			
				<rect x="460.513" y="316.981" transform="matrix(-1 -1.224647e-16 1.224647e-16 -1 964.3593 637.6287)" style="fill:#0E293A;" width="43.333" height="3.667"/>
			
				<rect x="439.846" y="356.335" transform="matrix(6.123234e-17 -1 1 6.123234e-17 121.6986 842.6607)" style="fill:#0E293A;" width="84.667" height="8.292"/>
			<path style="fill:#048FA6;" d="M450.399,317.314h63.561c1.318,0,2.386-1.068,2.386-2.386v-16.227
				c0-1.318-1.068-2.386-2.386-2.386h-63.561c-1.318,0-2.386,1.068-2.386,2.386v16.227
				C448.013,316.246,449.081,317.314,450.399,317.314z"/>
			<polygon style="fill:#0E293A;" points="453.341,405.981 511.018,405.981 485.97,397.814 478.389,397.814 			"/>
		</g>
		<g>
			<g>
				<g>
					<g>
						<g>
							<g>
								<path style="fill:#9E4E2D;" d="M438.75,309.895c-5.078-4.816-10.24-9.492-15.512-14.052
									c-4.728,5.94-9.712,12.319-14.731,18.828c-2.624,3.403-3.825,7.697-3.341,11.967c0.979,8.639,1.996,17.208,2.975,25.238
									c3.09,25.38,5.81,45.42,5.81,45.42l14.95-1.13l0.77-66.2l14.559-14.811C442.411,313.394,440.587,311.638,438.75,309.895z"/>
							</g>
							<path style="fill:#0E293A;" d="M419.409,317.827c-0.81,0.63-1.58,1.29-2.32,1.99l-7.89-6.04c0.61-0.8,1.22-1.59,1.83-2.38
								L419.409,317.827z"/>
						</g>
						<path style="fill:#FBAC4D;" d="M392.433,405.965h28.833l2.167-4.984l0.917,5h5c0,0,1.167-3.333,0.583-10.25
							c-0.583-6.917-0.5-9.833-0.5-9.833l-18.333,2.25l1.583,8.5l-17.833,5.5L392.433,405.965z"/>
					</g>
					<g>
						<g>
							<path style="fill:#AD5735;" d="M438.75,309.895c-1.198-1.136-2.408-2.251-3.614-3.373l-14.675,10.515
								c-3.403,2.438-6.307,5.507-8.554,9.039l-37.974,62.504l12.365,9.885c0,0,23.367-28.798,46.408-57.879
								c8.187-4.689,16.182-9.308,23.443-13.564C450.461,321.202,444.655,315.496,438.75,309.895z"/>
						</g>
						<path style="fill:#FBAC4D;" d="M352.068,382.294l22.311,18.264l4.834-2.484l-2.458,4.45l3.869,3.167
							c0,0,3.014-1.84,6.944-7.562s5.842-7.926,5.842-7.926l-15.611-9.872l-4.159,7.58l-17.283-7.041L352.068,382.294z"/>
					</g>
				</g>
				<g>
					<path style="fill:#FFFFFF;" d="M499.849,273.497c0,0,5.5,15.25,0.75,29.25s-59.25,34.75-59.25,34.75l0.75-7.5l-5.5,1
						l-26.75-20.5c0,0,29-36.25,32.25-38.75S499.849,273.497,499.849,273.497z"/>
					<path style="fill:#0E293A;" d="M442.099,329.997l-0.55,5.51c-0.5,0.29-1,0.57-1.51,0.87l0.39-3.88l-5.5,1l-4.98-3.82
						l-12.86-9.86c0.74-0.7,1.51-1.36,2.32-1.99l12.66,9.7l4.53,3.47L442.099,329.997z"/>
					
						<path style="fill:none;stroke:#0E293A;stroke-width:0.75;stroke-linecap:round;stroke-linejoin:round;stroke-miterlimit:10;" d="
						M443.724,329.122c0-0.5,41.75-17.375,48.375-29.625s5.125-24.875,5.125-24.875"/>
				</g>
			</g>
			<g>
				<g>
					<path style="fill:#FBAC4D;" d="M453.849,202.372c-2.005,1.084-8.002,7.575-10.671,9.962
						c-6.164,5.513-18.954,15.746-32.216,26.142c0.777,4.628,1.433,9.277,2.506,13.849c0.555,2.364,1.163,4.471,1.83,6.465
						c18.31-11.643,32.534-25.075,39.841-31.992c3.921-3.712,5.887-7.118,6.74-10.041
						C464.054,209.31,460.593,198.726,453.849,202.372z"/>
				</g>
				<g>
					<g>
						<path style="fill:#AD5735;" d="M483.537,199.115c-2.977-7.537-0.369-23.289-0.038-25.234c0.015-0.068,0.023-0.128,0.038-0.196
							l-20.199,11.358c0.339,0.565,0.528,1.334,0.611,2.223v0.008c0.181,1.801-0.075,4.093-0.437,6.18
							c-0.535,3.052-1.304,5.66-1.304,5.66H483.537z"/>
						<path style="fill:#0E293A;" d="M463.512,193.455c10.981,1.387,16.543-11.727,16.747-12.217
							c-2.027,3.218-4.967,4.846-7.838,5.622c-3.535,0.965-6.964,0.641-8.404,0.43c-0.023-0.007-0.045-0.007-0.068-0.015
							C464.13,189.076,463.874,191.367,463.512,193.455z"/>
					</g>
					<g>
						<path style="fill:#FBAC4D;" d="M460.849,198.372c0,0-2.75-9.25-0.625-9.375s19.75-2,24-3.625s1.25,10.875,0.75,12.375
							s9.5,0.375,12.625,6s3.625,12,0.125,28.125s0.25,33.375,2.75,37.75s3.375,6.625,0,7.875s-55.25,1.375-60.125-2.625
							s8.375-17.25,11.5-19.25s-7.375-25-7.25-36S453.349,200.122,460.849,198.372z"/>
						
							<path style="fill:none;stroke:#0E293A;stroke-width:0.75;stroke-linecap:round;stroke-linejoin:round;stroke-miterlimit:10;" d="
							M452.758,208.29c-1.982,4.111-3.964,8.222-5.946,12.334c-1.083,2.247-2.186,4.565-2.349,7.054
							c-0.163,2.489,0.837,5.223,3.044,6.385"/>
					</g>
				</g>
				<g>
					<g>
						<path style="fill:#0E293A;" d="M449.425,262.747h-31.281c-0.912,0-1.722-0.584-2.011-1.449l-14.087-42.261
							c-0.457-1.373,0.564-2.79,2.011-2.79h31.281c0.912,0,1.722,0.584,2.011,1.449l14.087,42.261
							C451.894,261.329,450.872,262.747,449.425,262.747z"/>
						<g>
							<path style="fill:#AD5735;" d="M416.989,237.945c-0.07-1.503-10.349-2.898-10.088-3.962c0.231-0.94,2.694-1.6,4.016-1.72
								c0.279-0.025,0.47-0.267,0.405-0.54c-0.127-0.54-0.553-1.3-1.949-1.268c-0.015,0-0.03,0.001-0.044,0.001
								c-2.679,0.055-4.839,2.203-4.839,4.883v4.391c0,1.436,0.631,2.799,1.724,3.729c1.847,1.57,3.882,2.95,5.59,3.249
								c0.278,0.049,0.465-0.209,0.337-0.464c-0.269-0.537-1.121-1.508-3.71-2.988c0,0,6.097,1.698,7.091,1.136
								c0.994-0.562-6.449-3.819-6.449-3.819s7.056,1.178,7.692,0.349s-7.091-3.167-7.091-3.167S417.018,238.549,416.989,237.945z"
								/>
						</g>
					</g>
					<g>
						<g>
							<path style="fill:#AD5735;" d="M458.956,246.101c-2.378-0.046-4.344-0.086-5.776-0.116c-2.989-3.113-6.208-4.612-7.857-5.348
								c-1.275-0.569-1.962-0.033-2.287,0.416c-0.166,0.228-0.089,0.521,0.157,0.651c1.172,0.619,3.199,2.184,3.048,3.142
								c-0.17,1.082-10.19-1.601-10.835-0.241c-0.259,0.546,6.819,2.648,6.819,2.648s-8.03-0.827-7.764,0.183
								c0.266,1.01,7.23,2.648,7.23,2.648s-8.124,0.13-7.423,1.032c0.7,0.903,6.98,1.691,6.98,1.691
								c-2.959,0.366-4.12,0.932-4.576,1.324c-0.216,0.186-0.143,0.495,0.132,0.558c2.861,0.649,8.918-0.426,12.68-1.226
								c2.558,1.216,5.164,2.314,7.797,3.323C457.785,253.214,458.334,249.649,458.956,246.101z"/>
							<path style="fill:#FBAC4D;" d="M483.008,209.583c0.145-3.763,2.509-7.112,6.076-8.317c3.214-1.086,7.435-1.055,11.265,3.605
								c7.5,9.125,11.875,50.375,3.75,58s-52.375-5.125-52.375-5.125s1.625-11.75,2.875-13.125s32.875,0.625,32.875,0.625
								S482.542,221.661,483.008,209.583z"/>
						</g>
						<g>
							<path style="fill:#0E293A;" d="M454.099,246.08l0.5-1.458c0,0,16.75-0.708,32.875,0.625l-4.042-24l-0.333,19.833l-30,1.333
								L454.099,246.08z"/>
							
								<path style="fill:none;stroke:#0E293A;stroke-width:0.75;stroke-linecap:round;stroke-linejoin:round;stroke-miterlimit:10;" d="
								M483.7,215.719c-0.634-2.347-0.436-4.91,0.552-7.131c0.987-2.221,2.757-4.086,4.924-5.187"/>
							
								<path style="fill:none;stroke:#0E293A;stroke-width:0.75;stroke-linecap:round;stroke-linejoin:round;stroke-miterlimit:10;" d="
								M497.287,259.96c1.234-0.878,2.313-1.976,3.169-3.226"/>
						</g>
					</g>
				</g>
			</g>
			<g>
				<g>
					<path style="fill:#AD5735;" d="M489.141,167.602c-0.528-1.659-2.301-2.989-4.065-2.549c-0.123,0.031-0.311,0.11-0.521,0.213
						c0.239-5.794-0.607-12.14-4.636-15.645c-8.67-7.54-21.1-4.9-23.74,1.88c-2.05,5.27-2.78,11.39-3,17.35
						c-0.1,2.55-0.1,5.06-0.07,7.47v0.75c0.01,1.07,0.05,2.17,0.41,3.18c1.37,3.9,6.93,6.3,10.68,7.08c4.83,1,9.68-0.26,13.46-3.41
						c3.01-2.489,4.948-6.015,5.782-9.825c0.86,0.073,2.076-0.129,2.349-0.233c1.088-0.415,2.106-1.316,2.733-2.283
						C489.277,170.416,489.562,168.923,489.141,167.602z"/>
					<g>
						<g>
							<path style="fill:#BF5B34;" d="M457.939,172.591c0,2.13-1.72,3.86-3.85,3.86c-0.34,0-0.67-0.04-0.98-0.13
								c-0.03-2.41-0.03-4.92,0.07-7.47c0.29-0.07,0.6-0.11,0.91-0.11C456.219,168.741,457.939,170.461,457.939,172.591z"/>
							<circle style="fill:#BF5B34;" cx="473.268" cy="172.594" r="3.853"/>
						</g>
						<g>
							<g>
								<path style="fill:#0E293A;" d="M459.972,165.117c0,1.258-0.498,2.278-1.113,2.278c-0.615,0-1.113-1.02-1.113-2.278
									c0-1.258,0.498-2.278,1.113-2.278C459.474,162.838,459.972,163.859,459.972,165.117z"/>
								<path style="fill:#0E293A;" d="M456.587,162.118c0.188,0.369,0.435,0.69,0.753,0.972c0.315,0.281,0.715,0.499,1.164,0.603
									l0.019,0.004c0.222,0.051,0.443-0.087,0.494-0.309c0.051-0.222-0.087-0.443-0.309-0.494
									c-0.036-0.008-0.074-0.011-0.109-0.01c-0.622,0.025-1.313-0.354-1.785-0.904l-0.008-0.009
									c-0.048-0.056-0.132-0.062-0.188-0.014C456.572,161.997,456.56,162.064,456.587,162.118z"/>
							</g>
							<g>
								<ellipse style="fill:#0E293A;" cx="468.497" cy="165.117" rx="1.113" ry="2.278"/>
								<path style="fill:#0E293A;" d="M470.542,161.98c-0.472,0.55-1.163,0.928-1.785,0.904c-0.227-0.009-0.419,0.168-0.428,0.395
									c-0.009,0.227,0.168,0.419,0.395,0.428c0.037,0.002,0.072-0.002,0.107-0.01l0.021-0.005c0.449-0.103,0.85-0.322,1.164-0.603
									c0.318-0.282,0.565-0.603,0.753-0.972c0.033-0.065,0.007-0.146-0.058-0.179c-0.056-0.029-0.122-0.014-0.161,0.032
									L470.542,161.98z"/>
							</g>
						</g>
						<g>
							<path style="fill:#0E293A;" d="M459.5,172.009c0.386,0.751,0.973,1.4,1.678,1.907c0.703,0.508,1.584,0.834,2.491,0.827
								c0.901-0.023,1.786-0.329,2.48-0.855c0.363-0.238,0.648-0.571,0.961-0.855c0.262-0.337,0.518-0.675,0.747-1.024
								c-0.344,0.251-0.657,0.52-0.972,0.779c-0.35,0.213-0.663,0.475-1.018,0.653c-0.691,0.396-1.447,0.613-2.201,0.625
								c-0.758,0.019-1.512-0.221-2.209-0.597C460.762,173.086,460.107,172.588,459.5,172.009z"/>
							<path style="fill:#0E293A;" d="M462.506,176.049c0.317,0.282,0.752,0.384,1.172,0.397c0.421-0.014,0.85-0.128,1.172-0.397
								c-0.411,0.065-0.785,0.146-1.173,0.132C463.29,176.195,462.912,176.128,462.506,176.049z"/>
						</g>
						<g>
							<path style="fill:#0E293A;" d="M466.46,157.215c0.519-0.461,1.107-0.611,1.724-0.639c0.612-0.014,1.241,0.058,1.836,0.261
								c0.601,0.184,1.155,0.521,1.617,0.926c0.483,0.39,0.822,0.907,1.104,1.415c0.143,0.257,0.05,0.581-0.207,0.724
								c-0.206,0.114-0.454,0.078-0.619-0.073l-0.045-0.042c-0.362-0.333-0.71-0.646-1.099-0.873
								c-0.374-0.252-0.794-0.39-1.213-0.498c-0.423-0.098-0.864-0.151-1.315-0.127c-0.444,0.015-0.917,0.038-1.405-0.081
								l-0.141-0.034c-0.299-0.073-0.483-0.375-0.409-0.674C466.316,157.385,466.377,157.288,466.46,157.215z"/>
							<path style="fill:#0E293A;" d="M460.897,157.215c-0.519-0.461-1.107-0.611-1.724-0.639c-0.612-0.014-1.241,0.058-1.837,0.261
								c-0.601,0.184-1.155,0.521-1.617,0.926c-0.483,0.39-0.821,0.907-1.104,1.415c-0.143,0.257-0.05,0.581,0.207,0.724
								c0.206,0.114,0.455,0.078,0.619-0.073l0.045-0.042c0.362-0.333,0.71-0.646,1.099-0.873c0.374-0.252,0.794-0.39,1.213-0.498
								c0.423-0.098,0.864-0.151,1.315-0.127c0.444,0.015,0.917,0.038,1.405-0.081l0.141-0.034c0.299-0.073,0.483-0.375,0.409-0.674
								C461.041,157.385,460.979,157.288,460.897,157.215z"/>
						</g>
						<path style="fill:#0E293A;" d="M463.42,161.636c-0.197,0.858-0.342,1.711-0.501,2.555c-0.165,0.842-0.32,1.683-0.559,2.48
							c-0.055,0.201-0.118,0.398-0.189,0.588c-0.058,0.156-0.198,0.456-0.193,0.735c-0.029,0.569,0.335,1.126,0.799,1.351
							c0.474,0.266,1.021,0.224,1.453,0.077c0.438-0.158,0.82-0.395,1.15-0.688c-0.799,0.3-1.732,0.534-2.294,0.11
							c-0.283-0.215-0.435-0.501-0.395-0.812c0.014-0.16,0.065-0.262,0.167-0.506c0.086-0.213,0.161-0.428,0.225-0.644
							c0.244-0.868,0.37-1.744,0.418-2.621C463.552,163.386,463.535,162.509,463.42,161.636z"/>
						<path style="fill:#0E293A;" d="M487.745,168.833c0.013-0.523-0.132-1.102-0.593-1.508c-0.491-0.402-1.189-0.365-1.719-0.166
							c-0.563,0.195-1.025,0.581-1.388,1.012c-0.372,0.437-0.642,0.91-0.862,1.455c-0.079,0.194,0.015,0.416,0.21,0.494
							c0.147,0.059,0.309,0.021,0.413-0.085l0.025-0.026c0.37-0.376,0.836-0.778,1.276-0.902c0.22-0.057,0.384-0.05,0.536,0.059
							c0.158,0.112,0.279,0.348,0.383,0.591c0.194,0.499,0.311,1.084-0.115,1.315c-0.447,0.254-1.102,0.193-1.686,0.115
							c0.551,0.242,1.161,0.446,1.853,0.249c0.351-0.114,0.631-0.513,0.654-0.874c0.034-0.36-0.018-0.688-0.108-1.009
							c-0.095-0.317-0.227-0.654-0.539-0.931c-0.316-0.284-0.812-0.35-1.166-0.241c-0.721,0.217-1.208,0.633-1.66,1.118l0.648,0.383
							c0.349-0.872,0.922-1.78,1.749-2.189c0.414-0.198,0.904-0.298,1.295-0.078C487.359,167.83,487.606,168.333,487.745,168.833z"
							/>
					</g>
				</g>
				<path style="fill:#0E293A;" d="M498.189,170.907c0.9-2.1,1.59-4.44,0.96-6.63c-1.4-4.87-8.25-6.22-10.19-10.89
					c-1.22-2.95-0.18-6.59-1.85-9.3c-1.33-2.18-4.04-3.11-6.59-3.27c-2.54-0.17-5.1,0.25-7.64,0.02c-3.4-0.31-6.61-1.79-10.01-2.13
					c-5.47-0.54-11.4,2.48-13.25,7.65c-1.04,2.92-0.76,6.2-1.89,9.09c-1.08,2.79-3.38,4.97-4.47,7.75
					c-1.39,3.55-0.48,7.88,2.21,10.58c1.81,1.81,4.4,3.03,5.32,5.42c0.63,1.64,0.32,3.49,0.75,5.19c0.6,2.33,2.57,4.12,4.76,5.11
					c1.01,0.45,2.06,0.71,3.13,0.95c0.05-0.84,0.27-1.42,0.79-1.45c0.51-0.03,1.9-0.17,3.79-0.37c0-0.48-0.02-0.93-0.06-1.35v-0.01
					c-3.74-0.82-9.09-3.2-10.43-7.02c-0.36-1.01-0.4-2.11-0.41-3.18v-0.75c-0.03-2.41-0.03-4.92,0.07-7.47
					c0.069-1.858,0.196-3.729,0.388-5.587c1.538-4.015,4.181-10.509,4.181-10.509c0.429,3.273,3.236,6.084,6.509,6.518
					c1.712,0.227,3.658-0.074,4.988,1.028c1.467,1.217,1.52,3.674,3.128,4.696c1.691,1.076,4.335,0.031,5.683,1.514
					c0.783,0.862,0.93,2.42,2.061,2.695c0.973,0.236,1.786-0.722,2.324-1.566c0.579-0.91,2.12-2.407,2.119-2.369
					c0.2-0.1,0.39-0.18,0.52-0.21c1.76-0.44,3.53,0.89,4.06,2.55c0.42,1.32,0.14,2.81-0.62,3.97c-0.62,0.97-1.64,1.87-2.73,2.29
					c-0.27,0.1-1.47,0.3-2.33,0.23c-0.23,1.44-1.02,6.43-1.26,11.86c0.83-0.2,1.52-0.4,2.02-0.59c2.54-0.97,2.5,3.08,1.94,6.83
					c1.45-0.35,2.87-0.75,4.22-1.2c1.76-0.58,3.59-1.34,4.67-2.85c2.16-3,0.41-7.17,0.85-10.84
					C496.169,175.047,497.289,172.997,498.189,170.907z"/>
			</g>
		</g>
	</g>
	<g>
		<g>
			<rect x="283.366" y="259.7" style="fill:#216087;" width="62.5" height="2.75"/>
			<rect x="315.741" y="259.7" style="fill:#0E293A;" width="62.5" height="2.75"/>
			<path style="fill:#0E293A;" d="M378.241,259.731h-62.5l5.269-39.281c0.132-0.984,0.972-1.719,1.965-1.719h58.5
				c1.199,0,2.124,1.057,1.964,2.246L378.241,259.731z"/>
		</g>
		<g>
			<g>
				<g>
					<polygon style="fill:#E6EFFF;" points="228.132,263.481 197.969,405.981 190.518,405.981 220.681,263.481 					"/>
					<polygon style="fill:#E6EFFF;" points="521.868,263.481 552.031,405.981 559.482,405.981 529.319,263.481 					"/>
					<polygon style="fill:#FFFFFF;" points="185.909,263.481 155.746,405.981 148.295,405.981 178.458,263.481 					"/>
					<polygon style="fill:#FFFFFF;" points="564.091,263.481 594.254,405.981 601.705,405.981 571.542,263.481 					"/>
				</g>
				<rect x="151.489" y="262.481" style="fill:#FFFFFF;" width="447.022" height="7.5"/>
			</g>
			<g>
				<g>
					<path style="fill:#3BDBAA;" d="M557.972,241.537l-0.994-0.112c1.691-14.971-6.806-20.466-6.892-20.52l0.527-0.849
						C550.986,220.287,559.736,225.902,557.972,241.537z"/>
				</g>
				<g>
					<path style="fill:#3BDBAA;" d="M558.354,242.174c-3.638-26.341,6.149-30.377,6.567-30.536l0.355,0.935l-0.178-0.467
						l0.181,0.466c-0.096,0.038-9.448,4.03-5.936,29.465L558.354,242.174z"/>
				</g>
				<g>
					<path style="fill:#3BDBAA;" d="M557.349,242.36c-0.054-6.24,0.829-9.635,2.699-10.381c1.587-0.633,3.103,0.967,3.167,1.036
						l-0.731,0.683c-0.01-0.012-1.119-1.17-2.067-0.788c-0.8,0.321-2.132,1.975-2.067,9.442L557.349,242.36z"/>
				</g>
				<path style="fill:#36C2D9;" d="M580.974,241.481h-44.625h-1.625c0,0,1.875,20.375,20,21h7.875c18.125-0.625,20-21,20-21H580.974
					z"/>
				<path style="fill:#3BDBAA;" d="M546.288,216.146c-3.346-1.088-7.191-0.503-10.063,1.529c-1.65,1.168-2.947,2.758-3.953,4.523
					l3.41,0.992l-4.119,0.374c-0.125,0.267-0.247,0.535-0.36,0.806c-1.087,2.61-1.675,5.394-2.258,8.16
					c-0.128,0.607-0.256,1.213-0.384,1.82l4.37,0.506l-4.841,1.729c-0.305,1.449-0.611,2.899-0.916,4.348
					c-0.348,1.649-0.641,3.549,0.409,4.867c1.019,1.277,2.907,1.454,4.516,1.172c0.82-0.144,1.617-0.377,2.396-0.665
					c-0.129-1.236-0.314-3.451-0.314-3.451l1.233,3.083c0.986-0.419,1.949-0.906,2.903-1.391c3.006-1.529,6.011-3.059,9.017-4.588
					c1.25-0.636,2.507-1.298,3.578-2.196l-2.815-4.74l4.434,2.956c0.995-1.47,1.583-3.227,1.812-4.998
					C555.139,224.833,552.598,218.197,546.288,216.146z"/>
				<path style="fill:#3BDBAA;" d="M586.298,249.322c-1.609-0.775-3.022-2.066-4.104-3.508c-0.857-1.143-1.556-2.387-2.215-3.656
					l-4.13-1.26c0,0,2.225-0.198,3.284-0.404c-0.41-0.813-0.823-1.625-1.269-2.416c-1.914-3.388-4.622-6.535-8.266-7.899
					c-3.103-1.161-6.951-0.676-9.325,1.514c-0.718,0.662-1.011,1.67-0.808,2.625c0.327,1.543,0.663,3.122,1.09,4.654l4.128-2.159
					l-3.525,4.038c0.121,0.334,0.231,0.674,0.368,0.997c1.173,2.752,2.901,5.336,5.334,7.076c2.641,1.888,5.929,2.658,9.165,2.929
					c3.331,0.279,6.775-0.064,10.086-0.818C586.952,250.845,587.075,249.697,586.298,249.322z"/>
				<path style="fill:#3BDBAA;" d="M596.613,226.381c-2.004-1.547-3.637-3.65-5.057-5.828l-1.206,1.595l0.548-2.63
					c-0.038-0.062-0.078-0.123-0.116-0.185c-2.3-3.742-4.437-7.781-8.002-10.347c-0.429-0.309-0.878-0.583-1.336-0.843l-0.677,3.338
					l-1.468-4.352c-1.562-0.608-3.214-1.007-4.876-1.234c-4.086-0.557-8.5-0.134-11.27,4.505c-1.173,1.965-1.532,4.34-1.013,6.569
					c0.47,2.018,1.387,3.881,2.602,5.574l5.108-3.813l-3.82,5.429c3.222,3.61,7.855,6.253,12.411,7.592
					c0.09,0.026,0.182,0.04,0.271,0.065l1.221-4.67l1.71,5.271c4.873,0.698,9.964-0.102,14.528-2.078
					C597.795,229.637,598.015,227.463,596.613,226.381z"/>
				<path style="fill:#3BDBAA;" d="M551.65,207.723c-0.096-2.106-1.139-4.167-2.64-5.622c-1.638-1.589-3.72-2.583-5.905-3.306
					l-3.756,0.435l1.39-1.121c-0.132-0.033-0.263-0.07-0.395-0.102c-2.799-0.689-5.681-1.212-8.304-2.379
					c-0.479-0.213-1.013,0.109-1.036,0.633c-0.077,1.707,0.168,3.421,0.68,5.053h2.082l-1.713,0.995
					c0.8,2.041,2.029,3.906,3.623,5.406l4.173-0.484l-2.389,1.9c3.297,2.203,7.499,2.995,11.373,2.162
					C551.028,210.822,551.759,210.099,551.65,207.723z"/>
				<g>
					<path style="fill:#3BDBAA;" d="M557.724,226.24c-0.242-13.318-10.156-19.395-10.257-19.455l0.514-0.858
						c0.105,0.063,10.491,6.428,10.743,20.295L557.724,226.24z"/>
				</g>
			</g>
		</g>
	</g>
	<g>
		<g>
			<path style="fill:#048FA6;" d="M654,405.981H96c-0.552,0-1-0.447-1-1c0-0.553,0.448-1,1-1h558c0.553,0,1,0.447,1,1
				C655,405.534,654.553,405.981,654,405.981z"/>
		</g>
	</g>
</g>
<g id="DESIGNED_BY_FREEPIK">
	<g id="XMLID_258_">
		<g id="XMLID_287_">
			<g id="XMLID_306_">
				<path id="XMLID_314_" style="fill:#A5B7C6;" d="M385.104,465.465c-0.433,0.443-0.804,0.932-1.108,1.453l-0.465-0.241
					c-0.067-0.297-0.35-0.502-0.659-0.466c-0.331,0.039-0.567,0.339-0.529,0.67c0.039,0.331,0.339,0.567,0.67,0.528
					c0.066-0.007,0.127-0.025,0.184-0.052l0.451,0.234c-0.251,0.554-0.433,1.139-0.539,1.743l0.747,0.132
					c0.229-1.306,0.85-2.507,1.792-3.473L385.104,465.465z"/>
				<path id="XMLID_313_" style="fill:#A5B7C6;" d="M390.591,463.164c-0.171,0-0.341,0.006-0.509,0.017l-0.074-0.626
					c0.188-0.149,0.296-0.389,0.266-0.645c-0.046-0.393-0.402-0.674-0.795-0.628c-0.394,0.046-0.675,0.402-0.628,0.796
					c0.03,0.254,0.189,0.461,0.404,0.563l0.073,0.624c-0.714,0.116-1.402,0.332-2.06,0.646l0.327,0.685
					c0.935-0.447,1.941-0.674,2.995-0.674c0.497,0,0.993,0.053,1.476,0.158l0.16-0.741
					C391.692,463.222,391.142,463.164,390.591,463.164z"/>
				<path id="XMLID_312_" style="fill:#A5B7C6;" d="M397.194,465.711c0.331-0.04,0.566-0.341,0.525-0.672
					c-0.04-0.331-0.341-0.566-0.672-0.525c-0.31,0.038-0.535,0.304-0.53,0.608l-0.416,0.363c-0.418-0.43-0.89-0.813-1.407-1.14
					l-0.404,0.642c1.135,0.715,2.021,1.727,2.564,2.925l0.69-0.313c-0.251-0.554-0.567-1.071-0.942-1.545l0.402-0.351
					C397.065,465.715,397.128,465.719,397.194,465.711z"/>
				<path id="XMLID_311_" style="fill:#A5B7C6;" d="M390.044,473.372c-0.386,0.023-0.775,0.035-1.157,0.035
					c-0.88,0-1.733-0.061-2.478-0.18c-0.391-0.062-0.846-0.154-1.271-0.292c1.047,1.861,3.069,3.125,5.389,3.125
					c2.855,0,5.263-1.916,5.949-4.503c-0.682,0.449-1.505,0.825-2.458,1.122C392.838,473.047,391.463,473.287,390.044,473.372z"/>
				<path id="XMLID_307_" style="fill:#A5B7C6;" d="M390.591,464.68c-3.352,0-6.079,2.666-6.079,5.943
					c0,0.425,0.046,0.849,0.137,1.261c0.674,0.483,2.706,0.891,5.348,0.731c2.88-0.174,5.297-0.958,6.672-2.159
					c-0.005-0.194-0.02-0.39-0.045-0.581C396.244,466.914,393.65,464.68,390.591,464.68z M388.432,471.195
					c-1.02,0-1.85-0.83-1.85-1.85c0-1.021,0.83-1.851,1.85-1.851c1.02,0,1.85,0.83,1.85,1.851
					C390.282,470.365,389.452,471.195,388.432,471.195z M393.169,470.287c-0.75,0-1.36-0.61-1.36-1.36s0.61-1.36,1.36-1.36
					s1.36,0.61,1.36,1.36S393.919,470.287,393.169,470.287z"/>
			</g>
			<path id="XMLID_304_" style="fill:#A5B7C6;" d="M406.595,466.547c-0.295-0.116-0.806-0.31-1.383-0.238
				c-0.551,0.069-0.844,0.341-0.844,1.007v0.866h2.229v1.717h-2.229v5.455h-1.932v-5.455h-1.339v-1.717h1.339v-0.889
				c0-1.68,0.896-2.782,2.568-2.782c0.643,0,1.157,0.121,1.59,0.308V466.547z"/>
			<path id="XMLID_302_" style="fill:#A5B7C6;" d="M411.297,469.878c-0.177-0.029-0.357-0.046-0.525-0.046
				c-0.896,0-1.51,0.548-1.51,1.613v3.908h-1.933v-7.172h1.873v0.784c0.451-0.673,1.14-0.977,2.02-0.977
				c0.414,0,0.848,0.128,1.095,0.337L411.297,469.878z"/>
			<path id="XMLID_299_" style="fill:#A5B7C6;" d="M418.965,471.757c0,0.222-0.016,0.488-0.037,0.651h-5.085
				c0.207,1.036,0.933,1.487,1.843,1.487c0.622,0,1.295-0.252,1.813-0.689l1.133,1.243c-0.814,0.748-1.851,1.089-3.057,1.089
				c-2.198,0-3.724-1.496-3.724-3.753c0-2.258,1.48-3.797,3.627-3.797C417.543,467.99,418.958,469.522,418.965,471.757z
				 M413.851,471.091h3.175c-0.178-0.918-0.732-1.437-1.561-1.437C414.554,469.655,414.021,470.203,413.851,471.091z"/>
			<path id="XMLID_296_" style="fill:#A5B7C6;" d="M426.619,471.757c0,0.222-0.016,0.488-0.037,0.651h-5.085
				c0.207,1.036,0.933,1.487,1.843,1.487c0.622,0,1.296-0.252,1.814-0.689l1.133,1.243c-0.814,0.748-1.851,1.089-3.058,1.089
				c-2.198,0-3.723-1.496-3.723-3.753c0-2.258,1.48-3.797,3.627-3.797C425.197,467.99,426.611,469.522,426.619,471.757z
				 M421.504,471.091h3.175c-0.178-0.918-0.733-1.437-1.562-1.437C422.208,469.655,421.674,470.203,421.504,471.091z"/>
			<path id="XMLID_293_" style="fill:#A5B7C6;" d="M434.964,471.764c0,2.154-1.495,3.775-3.472,3.775
				c-0.962,0-1.643-0.378-2.109-0.933v3.708h-1.925v-10.133h1.888v0.792c0.467-0.585,1.154-0.984,2.139-0.984
				C433.469,467.99,434.964,469.611,434.964,471.764z M429.287,471.764c0,1.133,0.748,1.977,1.844,1.977
				c1.14,0,1.85-0.881,1.85-1.977c0-1.095-0.71-1.976-1.85-1.976C430.035,469.789,429.287,470.632,429.287,471.764z"/>
			<path id="XMLID_290_" style="fill:#A5B7C6;" d="M438.068,465.836c0,0.696-0.541,1.229-1.236,1.229
				c-0.696,0-1.229-0.533-1.229-1.229c0-0.695,0.532-1.243,1.229-1.243C437.527,464.592,438.068,465.14,438.068,465.836z
				 M437.808,475.354h-1.932v-7.172h1.932V475.354z"/>
			<path id="XMLID_288_" style="fill:#A5B7C6;" d="M441.032,470.736l2.702-2.554h2.368l-3.478,3.375l3.501,3.797h-2.376
				l-2.717-2.901v2.901H439.1v-10.658h1.932V470.736z"/>
		</g>
		<g id="XMLID_259_">
			<path id="XMLID_284_" style="fill:#A5B7C6;" d="M309.412,475.29v-1.055c-0.527,0.718-1.391,1.23-2.387,1.23
				c-1.846,0-3.149-1.406-3.149-3.706c0-2.256,1.289-3.721,3.149-3.721c0.952,0,1.816,0.469,2.387,1.245v-3.765h1.099v9.771H309.412
				z M309.412,473.371v-3.208c-0.395-0.615-1.245-1.143-2.124-1.143c-1.42,0-2.27,1.172-2.27,2.739c0,1.567,0.85,2.725,2.27,2.725
				C308.167,474.484,309.017,473.986,309.412,473.371z"/>
			<path id="XMLID_281_" style="fill:#A5B7C6;" d="M311.932,471.745c0-2.051,1.465-3.706,3.486-3.706
				c2.139,0,3.398,1.67,3.398,3.794v0.278h-5.727c0.088,1.333,1.025,2.446,2.549,2.446c0.806,0,1.626-0.322,2.182-0.894l0.527,0.718
				c-0.703,0.703-1.655,1.084-2.812,1.084C313.44,475.465,311.932,473.957,311.932,471.745z M315.403,468.947
				c-1.509,0-2.256,1.274-2.314,2.358h4.644C317.718,470.25,317.015,468.947,315.403,468.947z"/>
			<path id="XMLID_279_" style="fill:#A5B7C6;" d="M319.607,474.352l0.571-0.791c0.469,0.542,1.362,1.011,2.329,1.011
				c1.084,0,1.67-0.513,1.67-1.216c0-1.714-4.38-0.659-4.38-3.281c0-1.099,0.952-2.036,2.636-2.036c1.202,0,2.051,0.454,2.623,1.025
				l-0.513,0.762c-0.424-0.513-1.201-0.894-2.109-0.894c-0.966,0-1.567,0.483-1.567,1.113c0,1.553,4.379,0.527,4.379,3.281
				c0,1.187-0.952,2.139-2.783,2.139C321.306,475.465,320.325,475.114,319.607,474.352z"/>
			<path id="XMLID_276_" style="fill:#A5B7C6;" d="M326.477,466.471c0-0.41,0.337-0.747,0.732-0.747c0.41,0,0.747,0.337,0.747,0.747
				c0,0.41-0.337,0.732-0.747,0.732C326.814,467.204,326.477,466.881,326.477,466.471z M326.667,475.29v-7.075h1.099v7.075H326.667z
				"/>
			<path id="XMLID_273_" style="fill:#A5B7C6;" d="M329.582,477.106l0.556-0.82c0.586,0.703,1.289,0.967,2.3,0.967
				c1.172,0,2.271-0.571,2.271-2.124v-1.011c-0.513,0.718-1.377,1.26-2.373,1.26c-1.846,0-3.149-1.377-3.149-3.662
				c0-2.271,1.289-3.677,3.149-3.677c0.952,0,1.802,0.469,2.373,1.245v-1.069h1.099v6.87c0,2.344-1.641,3.076-3.369,3.076
				C331.237,478.161,330.417,477.925,329.582,477.106z M334.708,473.253v-3.091c-0.381-0.615-1.23-1.143-2.109-1.143
				c-1.421,0-2.27,1.128-2.27,2.695c0,1.553,0.849,2.695,2.27,2.695C333.478,474.411,334.328,473.869,334.708,473.253z"/>
			<path id="XMLID_271_" style="fill:#A5B7C6;" d="M342.413,475.29v-4.629c0-1.245-0.63-1.641-1.582-1.641
				c-0.864,0-1.685,0.527-2.094,1.099v5.171h-1.099v-7.075h1.099v1.025c0.498-0.586,1.464-1.201,2.519-1.201
				c1.479,0,2.256,0.747,2.256,2.285v4.966H342.413z"/>
			<path id="XMLID_268_" style="fill:#A5B7C6;" d="M344.932,471.745c0-2.051,1.465-3.706,3.486-3.706
				c2.139,0,3.398,1.67,3.398,3.794v0.278h-5.727c0.088,1.333,1.025,2.446,2.548,2.446c0.806,0,1.626-0.322,2.183-0.894l0.527,0.718
				c-0.703,0.703-1.655,1.084-2.813,1.084C346.441,475.465,344.932,473.957,344.932,471.745z M348.404,468.947
				c-1.509,0-2.256,1.274-2.314,2.358h4.643C350.718,470.25,350.015,468.947,348.404,468.947z"/>
			<path id="XMLID_265_" style="fill:#A5B7C6;" d="M358.35,475.29v-1.055c-0.527,0.718-1.392,1.23-2.388,1.23
				c-1.845,0-3.149-1.406-3.149-3.706c0-2.256,1.289-3.721,3.149-3.721c0.952,0,1.817,0.469,2.388,1.245v-3.765h1.098v9.771H358.35z
				 M358.35,473.371v-3.208c-0.396-0.615-1.245-1.143-2.124-1.143c-1.421,0-2.271,1.172-2.271,2.739c0,1.567,0.85,2.725,2.271,2.725
				C357.105,474.484,357.954,473.986,358.35,473.371z"/>
			<path id="XMLID_262_" style="fill:#A5B7C6;" d="M364.692,475.29v-9.771h1.099v3.765c0.571-0.776,1.421-1.245,2.388-1.245
				c1.845,0,3.149,1.465,3.149,3.721c0,2.3-1.304,3.706-3.149,3.706c-0.996,0-1.86-0.513-2.388-1.23v1.055H364.692z M367.9,474.484
				c1.436,0,2.285-1.157,2.285-2.725c0-1.567-0.85-2.739-2.285-2.739c-0.864,0-1.729,0.527-2.109,1.143v3.208
				C366.171,473.986,367.036,474.484,367.9,474.484z"/>
			<path id="XMLID_260_" style="fill:#A5B7C6;" d="M372.528,477.062c0.161,0.073,0.425,0.117,0.6,0.117
				c0.483,0,0.806-0.161,1.055-0.747l0.469-1.069l-2.959-7.148h1.186l2.358,5.801l2.344-5.801h1.2l-3.544,8.511
				c-0.425,1.024-1.143,1.421-2.08,1.436c-0.234,0-0.601-0.044-0.806-0.104L372.528,477.062z"/>
		</g>
	</g>
</g>
</svg>
